<svg width="195" height="62" viewBox="0 0 195 62" fill="none" xmlns="http://www.w3.org/2000/svg">
<path d="M85.5215 21.4209C86.7747 21.4209 88.1012 21.4657 89.501 21.5552C90.9089 21.6447 92.3737 21.8197 93.8955 22.0801V25.1807C93.2119 24.9854 92.5202 24.8267 91.8203 24.7046C91.1204 24.5744 90.4165 24.4727 89.7085 24.3994C89.0086 24.3262 88.3088 24.2733 87.6089 24.2407C86.909 24.2082 86.2132 24.1878 85.5215 24.1797C85.1878 24.1797 84.8175 24.1878 84.4106 24.2041C84.0119 24.2122 83.5846 24.2285 83.1289 24.2529C82.6813 24.2773 82.2093 24.314 81.7129 24.3628C81.2165 24.4116 80.7119 24.4727 80.1992 24.5459V28.9893H90.8682V31.9922H80.1992V36.8994C80.9886 37.0133 81.8105 37.0988 82.665 37.1558C83.5195 37.2127 84.4717 37.2412 85.5215 37.2412C86.9375 37.2412 88.3454 37.172 89.7451 37.0337C91.1449 36.8953 92.5283 36.6309 93.8955 36.2402V39.3408C92.3737 39.6012 90.9129 39.7762 89.5132 39.8657C88.1134 39.9552 86.7992 40 85.5703 40C84.3171 40 82.9865 39.9552 81.5786 39.8657C80.1789 39.7762 78.71 39.6012 77.1719 39.3408V22.0801C78.71 21.8197 80.1789 21.6447 81.5786 21.5552C82.9784 21.4657 84.2926 21.4209 85.5215 21.4209ZM104.979 26.084C105.696 26.084 106.444 26.1654 107.226 26.3281C108.015 26.4909 108.78 26.7025 109.521 26.9629V21.4209H112.719V39.0479C112.287 39.1781 111.771 39.3001 111.168 39.4141C110.574 39.528 109.936 39.6297 109.252 39.7192C108.568 39.8006 107.856 39.8698 107.116 39.9268C106.383 39.9756 105.671 40 104.979 40C103.726 40 102.607 39.9146 101.623 39.7437C100.638 39.5646 99.8037 39.292 99.1201 38.9258C98.4365 38.5596 97.9157 38.0957 97.5576 37.5342C97.1995 36.9727 97.0205 36.3053 97.0205 35.5322V30.5518C97.0205 29.7786 97.1995 29.1113 97.5576 28.5498C97.9157 27.9883 98.4365 27.5244 99.1201 27.1582C99.8037 26.792 100.638 26.5234 101.623 26.3525C102.607 26.1735 103.726 26.084 104.979 26.084ZM105.858 37.7295C106.184 37.7295 106.514 37.7132 106.847 37.6807C107.189 37.6481 107.519 37.6034 107.836 37.5464C108.161 37.4894 108.467 37.4243 108.751 37.3511C109.044 37.2778 109.301 37.2005 109.521 37.1191V29.4531C108.959 29.1846 108.381 28.9648 107.787 28.7939C107.201 28.6149 106.558 28.5254 105.858 28.5254C105.354 28.5254 104.861 28.5376 104.381 28.562C103.909 28.5783 103.466 28.623 103.051 28.6963C102.636 28.7614 102.253 28.859 101.903 28.9893C101.553 29.1113 101.252 29.2782 101 29.4897C100.756 29.7013 100.565 29.9618 100.426 30.271C100.288 30.5802 100.219 30.9505 100.219 31.3818V34.9707C100.219 35.6299 100.369 36.1466 100.67 36.521C100.98 36.8872 101.391 37.1598 101.903 37.3389C102.416 37.5179 103.014 37.6278 103.698 37.6685C104.381 37.7091 105.102 37.7295 105.858 37.7295ZM119.53 35.5811C119.53 35.9554 119.665 36.2687 119.933 36.521C120.21 36.7733 120.576 36.9808 121.032 37.1436C121.496 37.2982 122.029 37.4121 122.631 37.4854C123.233 37.5505 123.86 37.583 124.511 37.583C125.194 37.583 125.837 37.5464 126.439 37.4731C127.042 37.3918 127.567 37.2738 128.014 37.1191C128.462 36.9564 128.816 36.7489 129.076 36.4966C129.337 36.2443 129.467 35.9391 129.467 35.5811V26.084L132.714 26.3281V36.3623C132.714 36.8018 132.604 37.2046 132.384 37.5708C132.173 37.937 131.876 38.2666 131.493 38.5596C131.111 38.8444 130.659 39.0926 130.138 39.3042C129.617 39.5158 129.052 39.6908 128.441 39.8291C127.839 39.9674 127.2 40.0692 126.525 40.1343C125.858 40.2075 125.186 40.2441 124.511 40.2441C123.827 40.2441 123.152 40.2075 122.484 40.1343C121.817 40.0692 121.178 39.9674 120.568 39.8291C119.966 39.6908 119.404 39.5158 118.883 39.3042C118.362 39.0926 117.911 38.8444 117.528 38.5596C117.146 38.2666 116.845 37.9411 116.625 37.583C116.413 37.2168 116.308 36.8099 116.308 36.3623V26.3281L119.53 26.084V35.5811Z" fill="#04016C"/>
<path d="M150.243 35.0195C150.04 34.8405 149.787 34.6655 149.486 34.4946C149.185 34.3237 148.815 34.1732 148.375 34.043C147.936 33.9046 147.411 33.7948 146.801 33.7134C146.199 33.6239 145.491 33.5791 144.677 33.5791C143.952 33.5791 143.265 33.5954 142.614 33.6279C141.971 33.6523 141.405 33.7337 140.917 33.8721C140.429 34.0023 140.042 34.2139 139.757 34.5068C139.472 34.7998 139.33 35.2067 139.33 35.7275V37.29C140.046 37.404 140.836 37.4976 141.698 37.5708C142.561 37.644 143.521 37.6807 144.579 37.6807C145.425 37.6807 146.325 37.6522 147.277 37.5952C148.237 37.5301 149.226 37.404 150.243 37.2168V35.0195ZM144.75 26.084C145.157 26.084 145.649 26.1043 146.227 26.145C146.805 26.1857 147.407 26.259 148.034 26.3647C148.66 26.4624 149.279 26.6007 149.889 26.7798C150.508 26.9507 151.061 27.1785 151.549 27.4634C152.046 27.7401 152.444 28.0737 152.746 28.4644C153.047 28.855 153.197 29.3148 153.197 29.8438V39.292C152.514 39.4303 151.741 39.5483 150.878 39.646C150.137 39.7355 149.254 39.8169 148.229 39.8901C147.204 39.9634 146.06 40 144.799 40C143.546 40 142.211 39.9471 140.795 39.8413C139.387 39.7355 137.914 39.5524 136.376 39.292V34.8975C136.376 34.4255 136.486 34.0145 136.706 33.6646C136.933 33.3065 137.243 33.0013 137.633 32.749C138.024 32.4967 138.484 32.2892 139.013 32.1265C139.542 31.9637 140.111 31.8335 140.722 31.7358C141.332 31.6382 141.967 31.5731 142.626 31.5405C143.285 31.4998 143.944 31.4795 144.604 31.4795C145.604 31.4795 146.455 31.5446 147.155 31.6748C147.863 31.7969 148.449 31.9312 148.913 32.0776C149.45 32.2567 149.893 32.4561 150.243 32.6758V30.6982C150.243 30.3646 150.162 30.0798 149.999 29.8438C149.836 29.5996 149.617 29.3962 149.34 29.2334C149.063 29.0625 148.746 28.9282 148.388 28.8306C148.03 28.7248 147.655 28.6434 147.265 28.5864C146.874 28.5295 146.475 28.4928 146.068 28.4766C145.67 28.4603 145.295 28.4521 144.945 28.4521C144.579 28.4521 144.188 28.4644 143.773 28.4888C143.358 28.505 142.943 28.5417 142.528 28.5986C142.121 28.6556 141.727 28.737 141.344 28.8428C140.97 28.9404 140.636 29.0747 140.343 29.2456C140.05 29.4165 139.814 29.624 139.635 29.8682C139.464 30.1042 139.379 30.389 139.379 30.7227L136.352 29.9414C136.352 29.3962 136.486 28.9242 136.754 28.5254C137.023 28.1185 137.377 27.7726 137.816 27.4878C138.264 27.203 138.777 26.971 139.354 26.792C139.932 26.6048 140.53 26.4624 141.149 26.3647C141.776 26.259 142.398 26.1857 143.017 26.145C143.635 26.1043 144.213 26.084 144.75 26.084ZM164.647 26.084C165.364 26.084 166.112 26.1654 166.894 26.3281C167.683 26.4909 168.448 26.7025 169.188 26.9629V21.4209H172.387V39.0479C171.955 39.1781 171.439 39.3001 170.836 39.4141C170.242 39.528 169.604 39.6297 168.92 39.7192C168.236 39.8006 167.524 39.8698 166.784 39.9268C166.051 39.9756 165.339 40 164.647 40C163.394 40 162.275 39.9146 161.291 39.7437C160.306 39.5646 159.472 39.292 158.788 38.9258C158.104 38.5596 157.584 38.0957 157.226 37.5342C156.868 36.9727 156.688 36.3053 156.688 35.5322V30.5518C156.688 29.7786 156.868 29.1113 157.226 28.5498C157.584 27.9883 158.104 27.5244 158.788 27.1582C159.472 26.792 160.306 26.5234 161.291 26.3525C162.275 26.1735 163.394 26.084 164.647 26.084ZM165.526 37.7295C165.852 37.7295 166.181 37.7132 166.515 37.6807C166.857 37.6481 167.187 37.6034 167.504 37.5464C167.829 37.4894 168.135 37.4243 168.419 37.3511C168.712 37.2778 168.969 37.2005 169.188 37.1191V29.4531C168.627 29.1846 168.049 28.9648 167.455 28.7939C166.869 28.6149 166.226 28.5254 165.526 28.5254C165.022 28.5254 164.529 28.5376 164.049 28.562C163.577 28.5783 163.134 28.623 162.719 28.6963C162.304 28.7614 161.921 28.859 161.571 28.9893C161.221 29.1113 160.92 29.2782 160.668 29.4897C160.424 29.7013 160.233 29.9618 160.094 30.271C159.956 30.5802 159.887 30.9505 159.887 31.3818V34.9707C159.887 35.6299 160.037 36.1466 160.338 36.521C160.648 36.8872 161.059 37.1598 161.571 37.3389C162.084 37.5179 162.682 37.6278 163.366 37.6685C164.049 37.7091 164.77 37.7295 165.526 37.7295ZM183.983 26.084C184.7 26.084 185.448 26.1654 186.229 26.3281C187.019 26.4909 187.784 26.7025 188.524 26.9629V21.4209H191.723V39.0479C191.291 39.1781 190.775 39.3001 190.172 39.4141C189.578 39.528 188.939 39.6297 188.256 39.7192C187.572 39.8006 186.86 39.8698 186.12 39.9268C185.387 39.9756 184.675 40 183.983 40C182.73 40 181.611 39.9146 180.626 39.7437C179.642 39.5646 178.808 39.292 178.124 38.9258C177.44 38.5596 176.92 38.0957 176.562 37.5342C176.203 36.9727 176.024 36.3053 176.024 35.5322V30.5518C176.024 29.7786 176.203 29.1113 176.562 28.5498C176.92 27.9883 177.44 27.5244 178.124 27.1582C178.808 26.792 179.642 26.5234 180.626 26.3525C181.611 26.1735 182.73 26.084 183.983 26.084ZM184.862 37.7295C185.188 37.7295 185.517 37.7132 185.851 37.6807C186.193 37.6481 186.522 37.6034 186.84 37.5464C187.165 37.4894 187.471 37.4243 187.755 37.3511C188.048 37.2778 188.305 37.2005 188.524 37.1191V29.4531C187.963 29.1846 187.385 28.9648 186.791 28.7939C186.205 28.6149 185.562 28.5254 184.862 28.5254C184.358 28.5254 183.865 28.5376 183.385 28.562C182.913 28.5783 182.47 28.623 182.055 28.6963C181.64 28.7614 181.257 28.859 180.907 28.9893C180.557 29.1113 180.256 29.2782 180.004 29.4897C179.76 29.7013 179.569 29.9618 179.43 30.271C179.292 30.5802 179.223 30.9505 179.223 31.3818V34.9707C179.223 35.6299 179.373 36.1466 179.674 36.521C179.984 36.8872 180.395 37.1598 180.907 37.3389C181.42 37.5179 182.018 37.6278 182.702 37.6685C183.385 37.7091 184.105 37.7295 184.862 37.7295Z" fill="#2AAA94"/>
<g clip-path="url(#clip0_1_47)">
<path d="M18.8662 48.1936C19.9887 48.7848 21.382 48.3569 21.9743 47.2365C22.5666 46.1161 22.1379 44.7283 21.0154 44.1343C20.0931 43.6473 18.9959 43.8585 18.3021 44.5679L20.1749 45.7248C20.4174 45.8515 20.5105 46.1527 20.3807 46.3976C20.251 46.6426 19.9492 46.7326 19.7067 46.606L17.6957 45.7136C17.501 46.682 17.9439 47.7066 18.8662 48.1936Z" fill="#2AAA94"/>
<path d="M20.2172 46.3103C20.2961 46.1583 20.2397 45.9725 20.0874 45.8937C19.9351 45.8121 19.749 45.8712 19.67 46.0232C19.591 46.1752 19.6474 46.361 19.7997 46.4398C19.9492 46.5187 20.1354 46.4595 20.2172 46.3103Z" fill="#2AAA94"/>
<path d="M24.4648 31.3342H1.33691C0.600761 31.3342 0 31.9366 0 32.6714V44.306C0 45.0407 0.521788 45.9415 1.15922 46.3103L18.1977 56.1292L24.6481 59.8451C25.2856 60.2138 25.8074 59.9126 25.8074 59.1779V45.1111V32.677C25.8045 31.9367 25.2038 31.3342 24.4648 31.3342ZM23.4241 46.4342L23.0546 46.5214C23.0292 46.7466 22.9784 46.9718 22.9023 47.1914L23.1956 47.4307C23.252 47.4785 23.2718 47.5686 23.2351 47.6334L23.0094 48.0584C22.9756 48.1232 22.891 48.1598 22.8205 48.1373L22.4566 48.0303C22.3184 48.2161 22.1605 48.385 21.9884 48.5342L22.1238 48.8889C22.1492 48.9564 22.121 49.0437 22.0589 49.0831L21.6528 49.3365C21.5907 49.3759 21.5005 49.3646 21.4497 49.3111L21.1874 49.0353C20.9759 49.1254 20.7559 49.1957 20.5302 49.238L20.4682 49.6124C20.4569 49.6855 20.3892 49.7475 20.3131 49.7503L19.8336 49.7672C19.7603 49.77 19.6869 49.7137 19.67 49.6405L19.5797 49.2745C19.3541 49.2492 19.1285 49.1985 18.9085 49.1225L18.6687 49.4153C18.6236 49.4716 18.5305 49.4913 18.4657 49.4575L18.0398 49.2323C17.9749 49.1985 17.9411 49.1113 17.9608 49.0437L18.068 48.6806C17.8818 48.5426 17.7126 48.385 17.5631 48.2133L17.2077 48.3484C17.14 48.3765 17.0498 48.3456 17.0131 48.2837L16.7593 47.8783C16.7198 47.8164 16.7311 47.7235 16.7847 47.6756L17.0582 47.4166C16.968 47.2055 16.9003 46.9859 16.8552 46.7607L16.48 46.7016C16.4067 46.6903 16.3447 46.62 16.3447 46.5468L16.3249 46.0682C16.3221 45.995 16.3785 45.9218 16.449 45.9049L16.8185 45.8177C16.8354 45.6685 16.8664 45.5221 16.9059 45.3757L14.4944 44.306C14.2349 44.6551 13.9416 44.9675 13.6201 45.2434L13.8711 45.9021C13.9191 46.0316 13.8655 46.1949 13.7498 46.2653L12.9911 46.741C12.8755 46.8142 12.7034 46.7917 12.6104 46.6931L12.1224 46.178C11.7304 46.3469 11.3186 46.4736 10.8983 46.5552L10.7855 47.2533C10.7629 47.3885 10.6332 47.5039 10.4978 47.5067L9.60372 47.5405C9.46552 47.5461 9.32732 47.4391 9.29629 47.3068L9.1327 46.62C8.71245 46.5721 8.2922 46.4792 7.88041 46.3356L7.43478 46.8846C7.34734 46.9887 7.17811 47.0253 7.05683 46.9606L6.26428 46.5439C6.143 46.4792 6.07531 46.3216 6.11479 46.1893L6.31505 45.5108C5.96531 45.2518 5.65224 44.9591 5.37301 44.6382L4.71302 44.8887C4.58609 44.9366 4.41969 44.8831 4.34917 44.7677L3.87251 44.0104C3.79918 43.895 3.82175 43.7233 3.92046 43.6304L4.43661 43.1434C4.26738 42.7493 4.14046 42.3411 4.05867 41.9188L3.35919 41.8062C3.2238 41.7837 3.10817 41.6542 3.10534 41.5191L3.0715 40.6267C3.06586 40.4888 3.17022 40.3508 3.30278 40.3199L3.99097 40.1566C4.03892 39.7372 4.132 39.3177 4.27584 38.9067L3.72867 38.4619C3.62149 38.3747 3.58765 38.2058 3.65252 38.0875L4.06995 37.2965C4.132 37.1755 4.29277 37.1079 4.42533 37.1473L5.10224 37.3472C5.36173 36.9981 5.65506 36.6856 5.97659 36.407L5.72557 35.7454C5.67762 35.6187 5.73121 35.4526 5.84685 35.3823L6.60556 34.9065C6.7212 34.8362 6.89324 34.8559 6.98632 34.9544L7.47426 35.4667C7.86631 35.2978 8.2781 35.1711 8.70117 35.0895L8.81399 34.3914C8.83655 34.2563 8.9663 34.1436 9.10168 34.138L9.99577 34.1042C10.134 34.0986 10.2694 34.2028 10.3004 34.3379L10.4668 35.0248C10.887 35.0726 11.3073 35.1655 11.7191 35.3091L12.1647 34.763C12.2522 34.6588 12.4214 34.6222 12.5427 34.687L13.3352 35.1036C13.4565 35.1683 13.5242 35.326 13.4847 35.4583L13.2816 36.1339C13.6314 36.3929 13.9444 36.6856 14.2237 37.0066L14.8837 36.756C14.9626 36.7251 15.0501 36.7448 15.1262 36.7842C15.1742 36.8095 15.2193 36.832 15.2475 36.8771L15.7242 37.6343C15.7975 37.7497 15.7749 37.9214 15.6762 38.0143L15.1601 38.5014C15.3321 38.8955 15.459 39.3036 15.538 39.7231L16.2375 39.8357C16.3729 39.8582 16.4857 39.9877 16.4913 40.1228L16.5252 41.0152C16.5308 41.1503 16.4265 41.2911 16.2911 41.322L15.6029 41.4853C15.5549 41.9047 15.4619 42.3214 15.318 42.7324L17.5744 44.1258C17.6731 44.0132 17.769 43.895 17.879 43.7993L17.7436 43.4446C17.7182 43.377 17.7464 43.2898 17.8085 43.2503L18.2146 42.9942C18.2767 42.9548 18.3698 42.966 18.4205 43.0195L18.6828 43.2926C18.8944 43.2025 19.1144 43.1349 19.34 43.0927L19.4021 42.7183C19.4133 42.6451 19.4839 42.586 19.5544 42.5804L20.0338 42.5635C20.1072 42.5607 20.1805 42.617 20.1974 42.6873L20.2849 43.0533C20.5105 43.0786 20.7361 43.1293 20.9561 43.2053L21.1959 42.9125C21.2438 42.8562 21.3341 42.8365 21.399 42.8731L21.822 43.0955C21.8869 43.1293 21.9236 43.2166 21.901 43.2841L21.7938 43.6473C21.98 43.7852 22.1492 43.9428 22.2959 44.1146L22.6512 43.9794C22.7189 43.9541 22.8092 43.9823 22.8459 44.0442L23.0997 44.4496C23.1392 44.5115 23.1279 44.6044 23.0743 44.6551L22.7979 44.914C22.891 45.1252 22.9587 45.3447 23.001 45.5699L23.3761 45.6291C23.4466 45.6403 23.5087 45.7107 23.5115 45.7839L23.5312 46.2624C23.551 46.3413 23.4946 46.4173 23.4241 46.4342Z" fill="#2AAA94"/>
<path d="M24.6453 0.157806L1.15922 13.6898C0.521788 14.0585 0 14.9593 0 15.6941V27.3287C0 28.0634 0.603582 28.663 1.33691 28.663H9.54449H24.4676C25.2038 28.663 25.8074 28.0606 25.8074 27.3287V25.1752V0.824973C25.8045 0.0902449 25.2828 -0.210966 24.6453 0.157806ZM17.8311 25.817H8.12861C6.83119 25.817 5.65506 25.3047 4.78353 24.477H9.93936C10.1171 24.7107 10.385 24.8683 10.6896 24.9049C10.7347 24.9105 10.7799 24.9218 10.825 24.9218C10.9406 24.9218 11.0478 24.8993 11.1522 24.8683C11.6063 24.7276 11.9391 24.3109 11.9391 23.8099C11.9391 23.1962 11.4399 22.6979 10.825 22.6979C10.4611 22.6979 10.1424 22.8753 9.93654 23.1427H3.79354C3.46637 22.4896 3.27457 21.7549 3.27457 20.9751C3.27457 20.322 3.40714 19.7027 3.64124 19.1341H9.93654C10.1396 19.4043 10.4611 19.5788 10.825 19.5788C11.4427 19.5788 11.9391 19.0806 11.9391 18.4669C11.9391 17.8532 11.4399 17.355 10.825 17.355C10.4611 17.355 10.1424 17.5323 9.93654 17.7997H4.47046C5.15301 17.0171 6.08095 16.4541 7.13581 16.2346C8.23015 14.1289 10.4358 12.6876 12.977 12.6876C15.0444 12.6876 16.889 13.6419 18.0934 15.1282H13.1603C12.9573 14.858 12.6357 14.6835 12.2747 14.6835C11.6599 14.6835 11.1606 15.1817 11.1606 15.7954C11.1606 16.4091 11.6599 16.9074 12.2747 16.9074C12.6386 16.9074 12.9573 16.73 13.1603 16.4626H19.5882C21.2466 17.1072 22.4595 18.6358 22.6512 20.4684H13.1603C12.9573 20.201 12.6357 20.0236 12.2747 20.0236C11.6599 20.0236 11.1606 20.5219 11.1606 21.1384C11.1606 21.7521 11.6599 22.2503 12.2747 22.2503C12.6386 22.2503 12.9573 22.073 13.1603 21.8055H22.6033C22.2084 24.0857 20.2256 25.817 17.8311 25.817Z" fill="#04016C"/>
<path d="M53.1293 13.6895L29.6404 0.157562C29.003 -0.21121 28.4812 0.0900008 28.4812 0.824729V27.3284C28.4812 28.0632 29.082 28.6628 29.8209 28.6628H41.7064H52.9488C53.685 28.6628 54.2886 28.0603 54.2886 27.3284V27.0216V15.6938C54.2857 14.9591 53.764 14.0583 53.1293 13.6895ZM45.4041 15.1139L47.621 13.8359C47.7338 13.7711 47.8776 13.8077 47.9425 13.9232C48.0074 14.0358 47.9707 14.1793 47.8579 14.2469L45.641 15.5249C45.6043 15.5446 45.5648 15.5559 45.5225 15.5559C45.4435 15.5559 45.3617 15.5137 45.3194 15.4377C45.2518 15.3222 45.2912 15.1787 45.4041 15.1139ZM43.1674 13.0561L44.4479 10.8435C44.5128 10.7309 44.6566 10.6915 44.7695 10.7562C44.8823 10.821 44.9218 10.9645 44.8569 11.0771L43.5764 13.2898C43.5341 13.3658 43.4523 13.408 43.3733 13.408C43.3338 13.408 43.2943 13.3967 43.2549 13.377C43.142 13.3123 43.1026 13.1687 43.1674 13.0561ZM40.2003 9.83289C40.2003 9.7034 40.3075 9.59643 40.4372 9.59643C40.5698 9.59643 40.6741 9.7034 40.6741 9.83289V12.3861C40.6741 12.5156 40.5698 12.6226 40.4372 12.6226C40.3075 12.6226 40.2003 12.5156 40.2003 12.3861V9.83289ZM36.1021 10.7562C36.2149 10.6915 36.3588 10.7281 36.4237 10.8435L37.7042 13.0561C37.769 13.1687 37.7295 13.3123 37.6167 13.377C37.5801 13.3996 37.5377 13.408 37.4983 13.408C37.4165 13.408 37.3375 13.3658 37.2924 13.2898L36.0119 11.0771C35.9526 10.9674 35.9921 10.821 36.1021 10.7562ZM33.0193 14.2441C32.9065 14.1793 32.867 14.0329 32.9319 13.9203C32.9968 13.8077 33.1406 13.7711 33.2534 13.8331L35.4703 15.1111C35.5832 15.1759 35.6226 15.3194 35.5578 15.432C35.5155 15.508 35.4365 15.5503 35.3519 15.5503C35.3124 15.5503 35.2729 15.5418 35.2334 15.5193L33.0193 14.2441ZM40.5275 27.5649C40.5049 27.5649 40.4852 27.5677 40.4626 27.5677C39.6616 27.5677 38.7477 27.1905 38.7477 26.6247H39.5177H42.1746C42.1774 27.1764 41.3115 27.5452 40.5275 27.5649ZM42.7951 26.0082C42.7951 26.163 42.6597 26.2925 42.4877 26.2925H39.1623H38.3839C38.2147 26.2925 38.0765 26.1658 38.0765 26.0082V25.8196C38.0765 25.6732 38.2006 25.5521 38.3585 25.5409C38.367 25.5409 38.3754 25.5352 38.3839 25.5352H42.4877C42.6597 25.5352 42.7951 25.6619 42.7951 25.8196V26.0082ZM44.8569 20.8031C43.6046 23.0552 43.2718 22.602 43.0687 23.8265C43.0208 24.1024 42.9728 24.322 42.9051 24.4937C43.001 24.5443 43.0659 24.6316 43.0659 24.733V24.9216C43.0659 25.0792 42.9136 25.2059 42.7218 25.2059H38.1498C38.0567 25.2059 37.9721 25.1749 37.9129 25.1242C37.9072 25.1214 37.9072 25.1186 37.9044 25.1158L37.8847 25.0961V25.0933C37.8395 25.0454 37.8085 24.9863 37.8085 24.9216V24.733C37.8085 24.6316 37.8734 24.5443 37.9693 24.4937C37.9044 24.322 37.8536 24.1052 37.8057 23.8265C37.5998 22.602 37.2698 23.0552 36.0175 20.8031C35.5973 20.0459 35.3378 19.1873 35.3378 18.2612C35.3378 15.4489 37.6224 13.1715 40.4372 13.1715C42.6174 13.1715 44.4761 14.5397 45.2038 16.4623C45.4153 17.0225 45.5394 17.6278 45.5394 18.2612C45.5366 19.1873 45.2771 20.0487 44.8569 20.8031Z" fill="#2AAA94"/>
<path opacity="0.2" d="M22.6062 21.8082C22.2113 24.0856 20.2257 25.8197 17.8311 25.8197H8.12866C6.83124 25.8197 5.6551 25.3073 4.78357 24.4797L9.54453 28.6657H24.4677C25.2038 28.6657 25.8074 28.0633 25.8074 27.3314V25.1779L22.609 21.8054L22.6062 21.8082Z" fill="#2AAA94"/>
<path d="M30.5542 39.4783L30.5571 39.4841C30.5571 39.4812 30.5542 39.4812 30.5542 39.4783Z" fill="#2AAA94"/>
<path opacity="0.2" d="M30.5542 39.4783L30.5571 39.4841C30.5571 39.4812 30.5542 39.4812 30.5542 39.4783Z" fill="#2AAA94"/>
<path d="M52.9488 31.3342H29.8209C29.0848 31.3342 28.4812 31.9366 28.4812 32.6714V59.1751C28.4812 59.9098 29.003 60.211 29.6404 59.8423L35.9837 56.1855L38.917 54.4965L44.4254 51.3239L53.1293 46.3103C53.2224 46.2568 53.3127 46.1893 53.4001 46.1132C53.9078 45.6769 54.2857 44.9337 54.2857 44.306V42.3889V32.6714C54.2857 31.9366 53.685 31.3342 52.9488 31.3342ZM46.4025 45.6488C46.4025 46.6988 43.7738 47.5461 40.5275 47.5461C37.2839 47.5461 34.6524 46.696 34.6524 45.6488V41.5979L39.8928 42.9013C40.1016 42.9519 40.3131 42.9801 40.5275 42.9801C40.7418 42.9801 40.9533 42.9548 41.1621 42.9013L46.4025 41.5979V45.6488ZM50.1114 39.8948L49.3132 40.0919V45.2012C49.5107 45.4151 49.6348 45.7276 49.6348 46.0767C49.6348 46.7185 49.2117 47.2421 48.6927 47.2421C48.1738 47.2421 47.7507 46.7213 47.7507 46.0767C47.7507 45.7276 47.8748 45.4123 48.0722 45.2012V40.4015L46.4025 40.8153L41.0408 42.1497C40.8716 42.1919 40.7023 42.2144 40.5275 42.2144C40.3554 42.2144 40.1834 42.1919 40.017 42.1497L34.6524 40.8153L30.9435 39.8948C30.8391 39.8695 30.763 39.8075 30.6953 39.7343C30.6332 39.664 30.5853 39.5795 30.5571 39.4838L30.5543 39.4782C30.464 39.1432 30.5937 38.7237 30.9407 38.6365L40.0141 36.376C40.1834 36.3309 40.3554 36.3112 40.5246 36.3112C40.6967 36.3112 40.8687 36.3338 41.038 36.376L50.1114 38.6365C50.2891 38.6815 50.4019 38.8138 50.4668 38.9743C50.6022 39.3205 50.4866 39.7991 50.1114 39.8948Z" fill="#04016C"/>
<path opacity="0.2" d="M50.4667 38.9771C50.6021 39.3205 50.4893 39.799 50.1114 39.8948L49.3132 40.0918V45.2011C49.5106 45.4151 49.6347 45.7275 49.6347 46.0766C49.6347 46.7184 49.2116 47.242 48.6927 47.242C48.1737 47.242 47.7506 46.7213 47.7506 46.0766C47.7506 45.7275 47.8747 45.4123 48.0721 45.2011V40.4015L46.4024 40.8153L41.0407 42.1496C40.8715 42.1918 40.7022 42.2144 40.5274 42.2144C40.3553 42.2144 40.1833 42.1918 40.0169 42.1496L34.6523 40.8153L30.9434 39.8948C30.839 39.8694 30.7629 39.8075 30.6952 39.7343L38.9169 54.4964L44.4253 51.3239L53.1293 46.3103C53.2223 46.2568 53.3126 46.1892 53.4 46.1132L50.4724 38.9799H50.4667V38.9771ZM46.4024 45.6487C46.4024 46.6987 43.7737 47.5461 40.5274 47.5461C37.2838 47.5461 34.6523 46.6959 34.6523 45.6487V41.5979L39.8928 42.9012C40.1015 42.9519 40.313 42.9801 40.5274 42.9801C40.7417 42.9801 40.9533 42.9547 41.162 42.9012L46.4024 41.5979V45.6487Z" fill="#2AAA94"/>
<path d="M9.31882 40.5593C9.17498 40.8295 9.27933 41.1645 9.5501 41.3081C9.82087 41.4517 10.1565 41.3475 10.3003 41.0773C10.4442 40.807 10.3398 40.472 10.0691 40.3285C9.7983 40.1849 9.46267 40.2891 9.31882 40.5593Z" fill="#2AAA94"/>
<path d="M13.0305 43.6418L9.21162 41.9471C8.58547 41.6177 8.34855 40.8436 8.67855 40.2215C9.00854 39.5993 9.78135 39.3601 10.4075 39.6894L13.9613 41.8852C14.4492 40.0075 13.6087 37.9751 11.8149 37.032C9.7193 35.9257 7.12164 36.7252 6.0132 38.8168C4.90475 40.9083 5.70576 43.501 7.80138 44.6073C9.5952 45.5504 11.75 45.0999 13.0305 43.6418Z" fill="#2AAA94"/>
<path opacity="0.2" d="M15.1375 36.7785C15.1854 36.8038 15.2305 36.8263 15.2587 36.8714L15.7354 37.6286C15.8087 37.744 15.7862 37.9158 15.6874 38.0087L15.1713 38.4957C15.3433 38.8898 15.4703 39.2979 15.5492 39.7174L16.2487 39.83C16.3841 39.8525 16.4969 39.982 16.5026 40.1171L16.5364 41.0095C16.5421 41.1446 16.4377 41.2854 16.3023 41.3163L15.6141 41.4796C15.5662 41.8991 15.4731 42.3157 15.3292 42.7267L17.5856 44.1201C17.6843 44.0075 17.7802 43.8893 17.8902 43.7936L17.7549 43.4389C17.7295 43.3713 17.7577 43.2841 17.8197 43.2446L18.2259 42.9885C18.2879 42.9491 18.381 42.9603 18.4318 43.0138L18.6941 43.2869C18.9056 43.1968 19.1256 43.1292 19.3512 43.087L19.4133 42.7126C19.4246 42.6394 19.4951 42.5803 19.5656 42.5747L20.0451 42.5578C20.1184 42.555 20.1917 42.6113 20.2087 42.6816L20.2961 43.0476C20.5217 43.0729 20.7474 43.1236 20.9674 43.1996L21.2071 42.9068C21.2551 42.8505 21.3453 42.8308 21.4102 42.8674L21.8333 43.0898C21.8981 43.1236 21.9348 43.2109 21.9122 43.2784L21.8051 43.6416C21.9912 43.7795 22.1604 43.9372 22.3071 44.1089L22.6625 43.9738C22.7302 43.9484 22.8204 43.9766 22.8571 44.0385L23.1109 44.4439C23.1504 44.5058 23.1391 44.5987 23.0856 44.6494L22.8092 44.9083C22.9022 45.1195 22.9699 45.339 23.0122 45.5643L23.3873 45.6234C23.4579 45.6346 23.5199 45.705 23.5227 45.7782L23.5425 46.2568C23.5453 46.3299 23.4889 46.4031 23.4184 46.42L23.0489 46.5073C23.0235 46.7325 22.9727 46.9577 22.8966 47.1773L23.1899 47.4166C23.2463 47.4644 23.2661 47.5545 23.2294 47.6192L23.0038 48.0443C22.9699 48.1091 22.8853 48.1457 22.8148 48.1231L22.4509 48.0162C22.3127 48.202 22.1548 48.3709 21.9828 48.5201L22.1181 48.8748C22.1435 48.9423 22.1153 49.0296 22.0533 49.069L21.6471 49.3223C21.5851 49.3618 21.4948 49.3505 21.444 49.297L21.1817 49.0211C20.9702 49.1112 20.7502 49.1816 20.5246 49.2238L20.4625 49.5982C20.4512 49.6714 20.3835 49.7333 20.3074 49.7362L19.8279 49.753C19.7546 49.7559 19.6812 49.6996 19.6643 49.6264L19.5741 49.2604C19.3484 49.2351 19.1228 49.1844 18.9028 49.1084L18.663 49.4012C18.6179 49.4575 18.5248 49.4772 18.46 49.4434L18.0341 49.2182C17.9692 49.1844 17.9354 49.0971 17.9551 49.0296L18.0623 48.6664C17.8761 48.5285 17.7069 48.3709 17.5574 48.1991L17.202 48.3343C17.1344 48.3624 17.0441 48.3314 17.0074 48.2695L16.7536 47.8641C16.7141 47.8022 16.7254 47.7093 16.779 47.6615L17.0526 47.4025C16.9623 47.1914 16.8946 46.9718 16.8495 46.7466L16.4744 46.6875C16.401 46.6762 16.339 46.6058 16.339 46.5326L16.3192 46.0541C16.3164 45.9809 16.3728 45.9077 16.4433 45.8908L16.8128 45.8035C16.8297 45.6543 16.8608 45.508 16.9003 45.3616L14.4887 44.2918C14.2293 44.6409 13.9359 44.9534 13.6144 45.2293L13.8654 45.888C13.9134 46.0175 13.8598 46.1807 13.7441 46.2511L12.9854 46.7269C12.8698 46.8001 12.6977 46.7775 12.6047 46.679L12.1167 46.1639C11.7247 46.3328 11.3129 46.4594 10.8926 46.5411L10.7798 47.2392C10.7573 47.3743 10.6275 47.4897 10.4921 47.4926L9.59804 47.5263C9.45983 47.532 9.32163 47.425 9.29061 47.2927L9.12702 46.6058C8.70677 46.558 8.28652 46.4651 7.87473 46.3215L7.42909 46.8704C7.34166 46.9746 7.17243 47.0112 7.05115 46.9464L18.1807 56.1179L24.6312 59.8337C25.2686 60.2025 25.7904 59.9013 25.7904 59.1666V45.0998L15.1262 36.7644L15.1375 36.7785Z" fill="#2AAA94"/>
<path opacity="0.2" d="M45.201 16.4624C45.4125 17.0226 45.5366 17.6278 45.5366 18.2612C45.5366 19.1874 45.2743 20.0488 44.8569 20.8032C43.6046 23.0553 43.2717 22.602 43.0687 23.8266C43.0207 24.1025 42.9728 24.322 42.9051 24.4937C43.001 24.5444 43.0659 24.6317 43.0659 24.733V24.9216C43.0659 25.0793 42.9135 25.206 42.7218 25.206H38.1498C38.0567 25.206 37.9721 25.175 37.9128 25.1243L38.3585 25.5409C38.3669 25.5409 38.3754 25.5353 38.3839 25.5353H42.4877C42.6597 25.5353 42.7951 25.662 42.7951 25.8196V26.0082C42.7951 26.1631 42.6597 26.2926 42.4877 26.2926H39.1623L39.5177 26.6247H42.1746C42.1746 27.1765 41.3087 27.5453 40.5246 27.565L41.7036 28.6628H52.946C53.6821 28.6628 54.2857 28.0604 54.2857 27.3285V27.0217L45.201 16.4624Z" fill="#2AAA94"/>
</g>
<defs>
<clipPath id="clip0_1_47">
<rect width="54.2857" height="60" fill="white"/>
</clipPath>
</defs>
</svg>
